# Blender 3.6.1
# www.blender.org
o Cube
v 1.000000 1.000000 -1.000000
v 1.000000 -1.000000 -1.000000
v 0.148342 6.151330 1.000000
v 1.000000 -1.000000 1.000000
v -1.000000 7.238257 -0.277020
v -1.000000 -0.990862 -0.311380
v -1.000000 7.238257 0.277020
v -1.000000 -0.990862 0.311380
v 1.000000 8.468250 -1.000000
v 0.148342 6.675131 1.000000
v -1.000000 8.005440 -0.277020
v -1.000000 8.005440 0.277020
v -0.439267 9.357428 0.000000
v 1.000000 8.468250 -1.504765
v 1.496635 8.468250 1.000000
v 1.496635 8.468250 -1.000000
v -1.000000 8.468250 -1.504765
v -1.504876 8.468250 -1.000000
v -1.504876 8.468250 1.000000
v 1.000000 8.468250 1.498446
v -1.000000 8.468250 1.498446
v -0.148342 6.151330 1.000000
v -1.000000 0.343352 -0.311380
v -0.148342 6.675131 1.000000
v -0.793262 8.796083 -0.353995
v -1.145264 7.293339 -0.221938
v -1.145264 7.293339 0.221938
v -1.145264 7.950358 -0.221938
v -1.145264 7.950358 0.221938
v 1.000000 1.000000 1.000000
v -1.000000 0.343352 0.311380
v 0.349587 8.798320 0.791851
v -0.793262 8.796083 0.353995
v 0.093223 6.206449 1.108611
v -0.093223 6.206449 1.108611
v 0.093223 6.620012 1.108611
v -0.093223 6.620012 1.108611
v -0.349587 8.798320 0.791851
v -1.000000 8.468250 -1.000000
v 0.000000 9.352674 0.442265
v -0.889641 8.918956 0.266452
v -0.889641 8.918956 -0.266452
v -0.623190 9.341479 0.000000
v 1.000000 8.468250 1.000000
v -1.000000 8.468250 1.000000
v 0.000000 10.053991 0.000000
v 0.273411 8.917512 0.895181
v -0.273411 8.917512 0.895181
v 0.000000 9.351071 0.621770
v -1.000000 -1.000000 -1.000000
v -1.000000 -1.000000 1.000000
v -1.000000 1.000000 1.000000
v -1.000000 1.000000 -1.000000
v -2.525322 1.000000 1.000000
v -2.525322 1.000000 -1.000000
v -1.098076 1.100303 0.871403
v -1.098076 1.100303 -0.871403
v -2.427246 1.100303 0.871403
v -2.427246 1.100303 -0.871403
v -0.830603 -0.926878 -0.247395
v -0.830603 -0.926878 0.247395
v -0.830603 0.279367 -0.247395
v -0.830603 0.279367 0.247395
v -1.145264 7.238257 0.277020
v -1.145264 7.238257 -0.277020
v -1.145264 8.005440 0.277020
v -1.145264 8.005440 -0.277020
v -1.102674 7.293339 0.221938
v -1.102674 7.293339 -0.221938
v -1.102674 7.950358 0.221938
v -1.102674 7.950358 -0.221938
v 0.148342 6.151330 1.108611
v -0.148342 6.151330 1.108611
v 0.148342 6.675131 1.108611
v -0.148342 6.675131 1.108611
v 0.093223 6.206449 1.057193
v -0.093223 6.206449 1.057193
v 0.093223 6.620012 1.057193
v -0.093223 6.620012 1.057193
v -0.917657 8.874530 0.353995
v -0.917657 8.874530 -0.353995
v -0.563663 9.435874 0.000000
v -0.930432 8.944679 0.266452
v -0.930432 8.944679 -0.266452
v -0.663980 9.367203 0.000000
v 0.349587 8.878855 0.919559
v -0.349587 8.878855 0.919559
v 0.000000 9.433209 0.569972
v 0.273411 8.942869 0.935392
v -0.273411 8.942869 0.935392
v 0.000000 9.376429 0.661981
v 1.000000 8.285346 -1.504765
v 1.496635 8.285346 1.000000
v 1.496635 8.285346 -1.000000
v -1.000000 8.285346 -1.504765
v -1.504876 8.285346 -1.000000
v -1.504876 8.285346 1.000000
v 1.000000 8.285346 1.498446
v -1.000000 8.285346 1.498446
v -0.830603 -0.990862 -0.311380
v -0.830603 -0.990862 0.311380
v -0.830603 0.343352 0.311380
v -0.830603 0.343352 -0.311380
v -0.739057 -0.926878 -0.247395
v -0.739057 -0.926878 0.247395
v -0.739057 0.279367 0.247395
v -0.739057 0.279367 -0.247395
v -1.000000 4.008151 1.000000
v 1.000000 4.008151 1.000000
v -1.000000 4.008151 2.048030
v 1.000000 4.008151 2.048030
v -1.000000 4.352740 1.000000
v 1.000000 4.352740 1.000000
v -1.000000 4.352740 2.048030
v 1.000000 4.352740 2.048030
v -0.195303 5.188835 1.165916
v 0.204762 5.188835 1.165936
v 0.204762 4.077315 1.165936
v -0.195303 4.077315 1.165916
v -0.242658 4.029952 1.011587
v 0.252133 4.029952 1.011612
v 0.252133 5.236197 1.011612
v -0.242658 5.236197 1.011587
v 0.252125 5.236197 1.165939
v -0.242666 5.236197 1.165914
v -0.242666 4.029952 1.165914
v 0.252125 4.029952 1.165939
v 0.204771 5.188835 0.978348
v -0.195294 5.188835 0.978328
v -0.195294 4.077315 0.978328
v 0.204771 4.077315 0.978348
vn 1.0000 -0.0000 -0.0000
vn -0.0000 -0.0000 1.0000
vn -0.0000 1.0000 -0.0000
vn -0.0000 -1.0000 -0.0000
vn -0.0000 -0.0000 -1.0000
vn 0.2510 0.3981 -0.8823
vn 0.8823 0.3981 -0.2510
vn -0.0000 0.5334 -0.8459
vn 0.8459 0.5334 -0.0000
vn -1.0000 -0.0000 -0.0000
vn -0.8459 0.5334 -0.0000
vn 0.2510 0.3981 0.8823
vn -0.5334 -0.8459 -0.0000
vn -0.0000 0.5334 0.8459
vn -0.8823 0.3981 -0.2510
vn -0.0000 -0.8459 0.5334
vn -0.0000 0.7885 -0.6150
vn 0.7150 0.6991 -0.0000
vn -0.0000 0.7885 0.6150
vn -0.7150 0.6991 -0.0000
vn -0.7026 -0.0000 0.7116
vn 0.7084 -0.0000 0.7058
vn 0.7128 -0.0000 -0.7013
vn -0.7070 -0.0000 -0.7072
vn -1.0000 -0.0000 -0.0001
vn 0.0001 -0.0000 -1.0000
vn 1.0000 -0.0000 0.0001
vn -0.0001 -0.0000 1.0000
vn 0.2511 0.3981 -0.8823
vn 0.2511 0.3981 0.8823
s 0
f 9//1 44//1 109//1
f 30//2 51//2 4//2
f 8//3 100//3 6//3
f 2//4 51//4 50//4
f 1//1 4//1 2//1
f 53//5 2//5 50//5
f 25//6 82//6 13//6
f 53//5 9//5 1//5
f 10//1 72//1 3//1
f 7//4 65//4 5//4
f 9//3 17//3 39//3
f 32//7 88//7 86//7
f 9//8 39//8 46//8
f 44//9 9//9 46//9
f 44//3 16//3 9//3
f 39//3 19//3 45//3
f 45//3 20//3 44//3
f 45//3 19//3 21//3
f 44//3 20//3 15//3
f 9//3 16//3 14//3
f 39//3 17//3 18//3
f 5//10 52//10 7//10
f 12//10 39//10 11//10
f 5//10 39//10 53//10
f 7//10 108//10 45//10
f 26//2 71//2 28//2
f 12//2 64//2 7//2
f 11//3 66//3 12//3
f 5//5 67//5 11//5
f 22//2 30//2 3//2
f 10//2 45//2 24//2
f 3//2 109//2 44//2
f 108//2 22//2 45//2
f 35//1 79//1 37//1
f 3//4 73//4 22//4
f 22//10 75//10 24//10
f 24//3 74//3 10//3
f 25//11 45//11 33//11
f 13//11 45//11 46//11
f 13//11 39//11 25//11
f 43//6 84//6 85//6
f 13//12 80//12 33//12
f 33//13 81//13 25//13
f 38//14 44//14 32//14
f 40//14 45//14 38//14
f 40//14 44//14 46//14
f 49//7 89//7 47//7
f 38//15 88//15 40//15
f 32//16 87//16 38//16
f 6//10 51//10 8//10
f 31//10 51//10 52//10
f 23//10 50//10 6//10
f 31//10 53//10 23//10
f 59//17 53//17 55//17
f 59//3 56//3 57//3
f 57//18 52//18 53//18
f 56//19 54//19 52//19
f 58//20 55//20 54//20
f 62//4 106//4 63//4
f 23//4 102//4 31//4
f 31//5 101//5 8//5
f 6//2 103//2 23//2
f 26//10 64//10 27//10
f 29//10 67//10 28//10
f 28//10 65//10 26//10
f 27//10 66//10 29//10
f 68//10 71//10 69//10
f 27//3 69//3 26//3
f 29//5 68//5 27//5
f 28//4 70//4 29//4
f 35//2 72//2 34//2
f 36//2 75//2 37//2
f 34//2 74//2 36//2
f 37//2 73//2 35//2
f 76//2 79//2 77//2
f 37//4 78//4 36//4
f 36//10 76//10 34//10
f 34//3 77//3 35//3
f 42//11 80//11 41//11
f 43//11 80//11 82//11
f 43//11 81//11 42//11
f 84//11 83//11 85//11
f 43//12 83//12 41//12
f 41//13 84//13 42//13
f 48//14 86//14 47//14
f 49//14 87//14 48//14
f 49//14 86//14 88//14
f 90//14 89//14 91//14
f 49//15 90//15 91//15
f 47//16 90//16 48//16
f 99//4 97//4 96//4
f 60//10 101//10 61//10
f 61//10 102//10 63//10
f 62//10 100//10 60//10
f 63//10 103//10 62//10
f 106//10 104//10 105//10
f 63//5 105//5 61//5
f 60//2 107//2 62//2
f 61//3 104//3 60//3
f 96//10 19//10 18//10
f 99//21 19//21 97//21
f 98//2 21//2 99//2
f 93//22 20//22 98//22
f 94//1 15//1 93//1
f 92//23 16//23 94//23
f 95//5 14//5 92//5
f 96//24 17//24 95//24
f 44//2 108//2 109//2
f 111//4 108//4 109//4
f 114//10 108//10 110//10
f 115//2 110//2 111//2
f 115//1 109//1 113//1
f 117//25 131//25 118//25
f 120//26 122//26 121//26
f 121//4 126//4 120//4
f 123//3 124//3 122//3
f 122//27 127//27 121//27
f 120//10 125//10 123//10
f 117//28 125//28 116//28
f 116//28 126//28 119//28
f 118//28 124//28 117//28
f 118//28 126//28 127//28
f 128//28 130//28 131//28
f 116//4 128//4 117//4
f 118//3 130//3 119//3
f 119//27 129//27 116//27
f 109//1 30//1 1//1
f 1//1 9//1 109//1
f 30//2 52//2 51//2
f 8//3 101//3 100//3
f 2//4 4//4 51//4
f 1//1 30//1 4//1
f 53//5 1//5 2//5
f 25//29 81//29 82//29
f 53//5 39//5 9//5
f 10//1 74//1 72//1
f 7//4 64//4 65//4
f 9//3 14//3 17//3
f 32//7 40//7 88//7
f 44//3 15//3 16//3
f 39//3 18//3 19//3
f 45//3 21//3 20//3
f 5//10 53//10 52//10
f 12//10 45//10 39//10
f 5//10 11//10 39//10
f 45//10 12//10 7//10
f 7//10 52//10 108//10
f 26//2 69//2 71//2
f 12//2 66//2 64//2
f 11//3 67//3 66//3
f 5//5 65//5 67//5
f 22//2 52//2 30//2
f 10//2 44//2 45//2
f 44//2 10//2 3//2
f 3//2 30//2 109//2
f 52//2 22//2 108//2
f 22//2 24//2 45//2
f 35//1 77//1 79//1
f 3//4 72//4 73//4
f 22//10 73//10 75//10
f 24//3 75//3 74//3
f 25//11 39//11 45//11
f 13//11 33//11 45//11
f 13//11 46//11 39//11
f 43//6 42//6 84//6
f 13//30 82//30 80//30
f 33//13 80//13 81//13
f 38//14 45//14 44//14
f 40//14 46//14 45//14
f 40//14 32//14 44//14
f 49//7 91//7 89//7
f 38//15 87//15 88//15
f 32//16 86//16 87//16
f 6//10 50//10 51//10
f 31//10 8//10 51//10
f 23//10 53//10 50//10
f 31//10 52//10 53//10
f 59//17 57//17 53//17
f 59//3 58//3 56//3
f 57//18 56//18 52//18
f 56//19 58//19 54//19
f 58//20 59//20 55//20
f 62//4 107//4 106//4
f 23//4 103//4 102//4
f 31//5 102//5 101//5
f 6//2 100//2 103//2
f 26//10 65//10 64//10
f 29//10 66//10 67//10
f 28//10 67//10 65//10
f 27//10 64//10 66//10
f 68//10 70//10 71//10
f 27//3 68//3 69//3
f 29//5 70//5 68//5
f 28//4 71//4 70//4
f 35//2 73//2 72//2
f 36//2 74//2 75//2
f 34//2 72//2 74//2
f 37//2 75//2 73//2
f 76//2 78//2 79//2
f 37//4 79//4 78//4
f 36//10 78//10 76//10
f 34//3 76//3 77//3
f 42//11 81//11 80//11
f 43//11 41//11 80//11
f 43//11 82//11 81//11
f 43//12 85//12 83//12
f 41//13 83//13 84//13
f 48//14 87//14 86//14
f 49//14 88//14 87//14
f 49//14 47//14 86//14
f 49//15 48//15 90//15
f 47//16 89//16 90//16
f 96//4 95//4 94//4
f 95//4 92//4 94//4
f 94//4 93//4 99//4
f 96//4 94//4 99//4
f 93//4 98//4 99//4
f 60//10 100//10 101//10
f 61//10 101//10 102//10
f 62//10 103//10 100//10
f 63//10 102//10 103//10
f 106//10 107//10 104//10
f 63//5 106//5 105//5
f 60//2 104//2 107//2
f 61//3 105//3 104//3
f 96//10 97//10 19//10
f 99//21 21//21 19//21
f 98//2 20//2 21//2
f 93//22 15//22 20//22
f 94//1 16//1 15//1
f 92//23 14//23 16//23
f 95//5 17//5 14//5
f 96//24 18//24 17//24
f 44//2 45//2 108//2
f 111//4 110//4 108//4
f 114//10 112//10 108//10
f 115//2 114//2 110//2
f 115//1 111//1 109//1
f 117//25 128//25 131//25
f 120//26 123//26 122//26
f 121//4 127//4 126//4
f 123//3 125//3 124//3
f 122//27 124//27 127//27
f 120//25 126//25 125//25
f 117//28 124//28 125//28
f 116//28 125//28 126//28
f 118//28 127//28 124//28
f 118//28 119//28 126//28
f 128//28 129//28 130//28
f 116//4 129//4 128//4
f 118//3 131//3 130//3
f 119//27 130//27 129//27
